<svg xmlns="http://www.w3.org/2000/svg" width="512" height="512" viewBox="0 0 512 512"><path fill="#0D3B66" d="M0 0h511.808v511.808H0z"/><path fill="#FAF0CA" d="M267.61 137.782c1.137-.215 2.141-.416 3.297-.543a341 341 0 0 1 2.216 5.558q4.494.144 8.99.149c-.065 1.136-.115 2.317-.21 3.447l-9.03.04c-2.582 4.419-4.777 8.227-7.712 12.445 4.478 7.701 9.963 16.26 14.157 23.926-2.879 5.735-6.369 11.629-9.45 17.295-1.395 2.565-3.993 7.611-5.6 9.83-8.789.043-19.976.403-28.589.018l-9.024-15.151c-1.654-2.718-5.171-8.254-6.448-10.948 2.265-4.762 5.817-10.172 8.43-14.841.863-1.541 5.184-9.524 6.103-10.497 1.269.109 2.307-.348 3.499-.756 2.543-.211 5.999-.102 8.65-.094l15.095.028c2.188-4.281 5.412-9.249 7.999-13.344-.674-1.92-1.914-4.802-2.372-6.562"/><path fill="#0D3B66" d="M237.245 161.391c8.044.152 16.889.057 24.934-.027 2.891 4.892 5.705 9.839 8.736 14.644 1.48 2.345 2.975 4.654 4.361 7.058-4.436 6.901-8.911 15.66-13.147 22.952-7.775.24-16.554.034-24.402.011-4.235-7.422-9.352-14.982-13.376-22.378 4.058-7.442 8.774-14.825 12.893-22.259"/><path fill="#FAF0CA" d="M269.322 182.116c.27.252.519.383.61.759.498 2.05-8.064 16.461-9.614 18.992l-3.221-.035-.615-.256c-.167-.394-.326-.724-.066-1.169 2.972-5.112 7.947-15.522 12.906-18.29m-10.982-14.358 3.591-.043c2.349 3.663 5.17 8.804 6.069 13.055-.433-.014-1.468-.031-1.758-.247-2.381-1.767-7.332-10.214-7.902-12.766"/><path fill="#F4D35E" d="M236.115 218.382c2.992-.341 7.95-.137 10.922.137 2.093 2.937 4.373 7.742 5.985 11.023 1.694.191 3.987.144 4.838 1.861-.492 1.871-3.219 1.164-4.699.992-2.447 2.852-4.945 6.367-7.211 9.418.875 2.028 3.88 8.068 3.193 9.913-2.654 1.265-4.853-8.964-6.326-9.536-2.448-.95-6.181-1.358-8.827-2.102-2.56 1.95-5.478 5.34-7.439 7.897 1.001 2.563 1.819 5.033 2.688 7.64 1.552.068 2.845-.225 3.809 1.158-.05 1.823-2.187 1.556-3.544 1.591-2.718 3.524-4.538 6.441-7.952 9.361.545 1.242 2.253 4.606.844 5.616-1.843-.595-2.575-3.468-3.158-5.126-3.373-.92-6.031-1.187-9.647-2.393-1.753 1.723-3.782 4.687-5.597 5.989-1.051.046-1.384-.112-1.691-1.044.407-1.92 3.552-5.047 4.944-6.665-.903-3.485-1.877-6.965-2.641-10.481-1.907-.968-5.839-1.867-6.672-3.398.219-.718.206-.665.79-1.148 1.854-.576 4.942 1.204 6.919 2.046 1.88-1.681 4.929-4.794 6.528-6.682-.645-1.3-1.624-3.601-3.092-3.945-.723.277-.465.252-1.206.272-.672-1.712 1.66-.722-.644-3.777.154-.751 1.04-1.089 1.86-1.634l1.653 2.204c.17.21.633.748.734.954 1.005 1.504 1.632 2.643 2.764 4.145 2.827 1.224 7.583 2.021 10.7 2.643 2.673-2.552 4.032-4.913 7.155-7.33-1.444-2.102-2.475-5.133-3.506-7.565-2.344-.901-3.721-.794-6.08-2.367l.038-.542c1.886-.488 4.517-.202 6.49-.048 1.646-2.511 5.064-6.951 7.08-9.073"/><path fill="#0D3B66" d="M214.137 246.706c1.867-.686 7.81.739 9.392 1.792l.118.078c1.418 2.408 2.458 5.696 3.414 8.372-2.205 3.086-4.075 5.818-6.74 8.55-3.284-.509-6.572-1.005-9.743-2.02-1.515-3.129-2.307-6.551-3.018-9.931 1.498-2.432 4.401-5.025 6.576-6.841"/><path fill="#002F51" d="M214.137 246.706c1.867-.686 7.81.739 9.392 1.792l.118.078c-1.672.246-8.13-1.104-9.511-1.87"/><path fill="#0D3B66" d="M237.326 221.185a327 327 0 0 1 7.696.026c2.141 2.451 4.301 7.118 5.748 10.128-2.522 2.495-4.193 5.309-6.688 7.792-1.477.38-7.804-1.226-9.861-1.551-.821-2.611-2.07-5.615-3.072-8.2 1.545-2.517 4.155-6.2 6.178-8.195"/><path fill="#FAF0CA" d="M278.902 281.898a10 10 0 0 1 1.323.081c1.142.162 15.14 19.65 17.126 22.355 5.523-6.381 10.356-14.249 15.995-20.656 1.127-1.28 2.015-2.301 3.581-.836.347 1.95.184 9.852.179 12.196q.041 12.123-.109 24.245c-2.655.039-5.415.001-8.079-.001l.079-3.85.076-16.057c-3.25 4.65-6.396 9.267-10.032 13.635l-3.513-.11c-3.239-4.593-6.777-8.583-9.7-13.372l-.163 19.626-7.703.005c-.18-11.879-.019-24.009.08-35.898.007-.745.341-.968.859-1.363m-93.531.37c.483-.031.979-.074 1.464-.06 1.646.048 19.52 17.746 22.091 20.291l.02-20.114h8.687q-.139 11.502-.045 23.006c.02 3.6.238 10.116-.083 13.515-.523.676-.492.47-1.602.696-1.623-.254-5.553-4.542-6.975-5.885l-9.713-9.16c-1.847-1.745-4.722-4.306-6.19-6.269.282 6.291.033 14.197-.088 20.558l-8.556.032c-.037-3.434-.126-35.425.26-36.344zm-34.925.239c8.963-.242 18.981-.092 27.964-.056l-.001 7.253q-9.618.067-19.236.031l-.006 7.441 16.92-.035-.15 6.628c-4.987.296-11.183.141-16.248.143l-.163.04c-.651.716-.391 6.622-.384 7.976 6.254-.032 13.87-.188 20.046.144l.003 6.808-28.972.003c-.006-11.24-.373-25.386.229-36.378"/><path fill="#22ABFE" d="M285.014 179.733c6.623 1.625 20.323 8.704 26.02 12.53a104.23 104.23 0 0 1 43.542 66.024c.372 1.899 2.088 12.327 1.395 13.352l-.542.07-5.539.039c-1.055-34.957-22.271-64.862-52.79-80.942-4.387-2.312-8.859-3.972-13.466-5.753.412-1.745.924-3.577 1.381-5.32m-69.629-.299c.552.389.978 4.428 1.134 5.359a100.9 100.9 0 0 0-29.637 18.799 100.05 100.05 0 0 0-31.126 54.247c-.979 4.553-1.869 9.339-2.102 13.989l-5.272.044c-.341.009-.505-.049-.844-.113-.385-.737.052-3.389.16-4.326a111.9 111.9 0 0 1 8.771-31.636c11.608-25.671 32.408-46.404 58.916-56.363"/><path fill="#FAF0CA" d="M324.997 282.5c8.929-.188 18.167-.075 27.119-.077l.009 7.038q-9.489-.049-18.978.002l-.005 7.392c5.368.056 10.995-.082 16.419-.064l-.075 7.147q-7.933-.025-15.865.134c-.822 1.181-.465 6.055-.444 7.8 6.31-.107 12.844-.015 19.173.004l.008 7.295-27.365.011q.15-18.341.004-36.681m-98.561.02 18.38-.06c2.633-.007 8.408-.168 10.729.323l.252.56c-.065 3.786-6.239 10.834-8.753 14.086-3.632 4.698-7.281 9.888-11.07 14.402l19.697.091c-.015 1.673.398 6.098-.421 7.143l-1.033.085-30.746-.018.054-4.114c1.553-2.33 4.322-5.554 6.087-7.88 4.507-5.937 9.403-11.848 13.73-17.907-4.636.416-13.199.149-18.075.144-.064-1.537-.428-5.645.302-6.724z"/><path fill="#F4D35E" d="M209.138 328.744c4.271-.099 8.366-.226 11.745 3.008a8.56 8.56 0 0 1 2.676 6.088 8.64 8.64 0 0 1-2.621 6.429c-3.813 3.774-8.688 3.632-13.578 3.587-.728.035-.419-.09-.964.364-.342 1.71-.212 5.054-.208 6.898l-5.428.061c.236-7.731.285-18.633-.068-26.301q4.224-.042 8.446-.134"/><path fill="#0D3B66" d="M206.311 333.187c4.347-.061 11.548-.867 11.694 5.259.039 1.633-.502 2.269-1.577 3.412-3.336 1.825-6.426 1.445-10.163 1.423q-.05-5.046.046-10.093"/><path fill="#22ABFE" d="M309.954 336.421c5.782-.179 12.217-.052 18.047-.062q14.029-.064 28.057.012c.032 2.863-.072 5.757-.145 8.621-14.789.197-31.261.293-46.012 0zm-162.071-.054c13.968-.015 28.147-.207 42.09-.053l-.025 8.775-42.205.071q.042-4.397.14-8.793"/><path fill="#FAF0CA" d="M261.559 282.507c2.635-.069 5.398-.028 8.043-.03-.153 9.035-.028 26.688-.154 36.278l-.303.398-8.164-.022c.143-12.078.031-24.164.243-36.235z"/><path fill="#F4D35E" d="M252.165 328.592c1.768-.041 3.674.002 5.453.01-.001 4.32-1.051 15.862.978 19.245 1.164 1.94 2.709 2.572 4.782 3.146 8.165-1.753 6.327-7.266 6.46-13.93.055-2.74-.074-5.545-.098-8.291 1.771-.062 3.615-.003 5.393.028l-.019 3.514c-.002 5.069.328 10.342-.591 15.314-1.565 8.458-13.887 9.915-19.299 4.541a9.4 9.4 0 0 1-2.43-4c-.988-3.344-.636-15.501-.628-19.576m36.768.098c5.004-.293 7.105.103 11.736 2.107-.48 1.317-1.177 2.869-1.731 4.178-3.208-1.443-8.628-3.459-11.713-.868a2.55 2.55 0 0 0-.894 1.982c.045 4.319 15.814 3.662 15.443 10.95-.326 6.387-4.894 8.174-10.525 8.384-2.619.006-9.102-1.043-10.632-3.329-.145-1 1.067-3.119 1.583-4.192 11.795 7.642 20.954-.909 7.897-3.379-12.228-2.313-12.085-13.427-1.164-15.833m1.334-78.017q4.71.051 9.419-.066c1.075 2.995 2.77 5.161 4.258 7.943-.976 1.951-3.651 5.976-4.904 7.992-1.125.205-7.602.121-9.147.12-.943-2.397-3.083-6.32-4.326-8.742 1.993-2.548 3.066-4.466 4.7-7.247m-16.59-10.77c3.051.305 6.119.396 9.182.273a422 422 0 0 0 4.219 8.487c-1.456 2.202-3.05 5.58-4.667 7.439l-8.502.042a192 192 0 0 0-5.094-9.339c1.812-2.412 3.221-4.372 4.863-6.903m17.097-8.214c3.011-.01 5.808-.008 8.819.124 1.979 2.243 3.091 4.799 4.573 7.386a411 411 0 0 1-4.861 8.205l-8.901.031c-1.186-2.607-3.185-6.164-4.558-8.777zm23.963 8.588.759-.078c.843.426 4.432 6.737 5.316 8.166-1.642 2.285-3.341 4.921-4.926 7.276l-7.442.325-.682.108c-1.683-.521-4.406-6.109-5.345-7.856 1.695-2.37 3.342-5.212 4.875-7.72 2.509-.039 4.936-.07 7.445-.219m-6.909-18.309c3.077-.11 6.242-.034 9.326-.003a86 86 0 0 0 4.107 7.641 315 315 0 0 1-5.19 7.357l-9.018.208c-1.549-2.569-2.491-5.011-4.365-7.565 1.756-2.405 3.433-5.147 5.139-7.638m-78.482 106.713c1.855-.012 3.665.066 5.518.136q.061 10.898-.005 21.796l13.757-.01-.168 4.47c-3.437.363-14.983.082-19.059.074zm61.83-115.236c2.481.164 6.847-.011 9.467-.037 1.242 2.468 3.085 4.799 4.791 6.971a432 432 0 0 0-4.809 6.721l-.749.926c-1.499.714-6.388.189-8.316.141a427 427 0 0 1-3.962-9.021c1.466-2.164 2.278-3.37 3.579-5.701"/><path fill="#FAF0CA" d="M223.339 204.806a7.153 7.153 0 1 1-4.849 8.829 7.15 7.15 0 0 1 4.849-8.83"/><path fill="#0D3B66" d="M224.258 207.951a3.836 3.836 0 0 1 4.764 4.684 3.837 3.837 0 1 1-4.763-4.683"/><path fill="#FAF0CA" d="M233.895 157.972a6.764 6.764 0 1 1 4.075-.428l.268.21c-1.193.408-2.23.865-3.499.756z"/><path fill="#5F6477" d="M233.895 157.972a6.76 6.76 0 0 0 4.075-.428l.268.21c-1.193.408-2.23.865-3.499.756z"/><path fill="#0D3B66" d="M234.204 148.337a3.274 3.274 0 1 1 2.258 6.147 3.274 3.274 0 0 1-2.258-6.147"/><path fill="#FAF0CA" d="M266.896 123.571a6.635 6.635 0 1 1-5.029 7.924 6.634 6.634 0 0 1 5.029-7.925"/><path fill="#0D3B66" d="M267.857 127.032a3.118 3.118 0 0 1 3.42 4.235 3.119 3.119 0 1 1-3.421-4.235"/><path fill="#FAF0CA" d="M288.223 138.509c8.548.379 9.997 10.169 2.189 13.203-1.354.08-2.592.172-3.856-.403a6.1 6.1 0 0 1-3.33-3.703c-1.37-4.187.782-7.952 4.996-9.097"/><path fill="#002F51" d="M288.701 142.159a2.997 2.997 0 1 1 .782 5.942 2.997 2.997 0 0 1-.782-5.942"/><path fill="#F4D35E" d="M250.864 253.668c4.006-.541 4.476 1.261 5.725 4.561-.608 1.341-1.081 2.868-2.403 3.427-.911.04-2.914.158-3.732 0a2.94 2.94 0 0 1-1.933-1.3c-1.439-2.243.098-5.43 2.342-6.688"/><path fill="#FCCB66" d="M202.963 226.925c5.102-.121 6.716 4.433 2.514 7.258-4.794.107-7.615-5.008-2.514-7.258m73.504-6.487c2.605-.103 5.341.406 5.217 4.139-.04 1.187-1.144 2.458-2.126 3.154-1.987.401-4.159.024-4.656-2.349-.436-2.083.483-3.291 1.566-4.943"/><path fill="#FAF0CA" d="M282.125 128.12a3.379 3.379 0 0 1 2.107 6.42 3.379 3.379 0 1 1-2.107-6.42"/><path fill="#FCCB66" d="M198.692 220.858c.041-.761-.024-1.271.415-1.877.868-.184 1.569.618 2.262 1.182 1.414-.278.954-.896 2.064-.865.32.677.247.679.134 1.441-.498.63-.762.738-1.432 1.154-.044 1.137 1.061 1.018.904 2.075-.602.172-.523.199-1.128.212-.586.155-1.3.688-1.996.597l-.379-.601c-.568-.079-1.291-.143-1.816-.348-.584-.227-.298-.01-.589-.586.288-1.059.844-1.546 1.561-2.382"/><path fill="#F4D35E" d="M198.692 220.858c1.343.964 2.506 1.778 3.219 3.32-.586.155-1.3.688-1.996.597l-.379-.601c-.568-.079-1.291-.143-1.816-.348-.584-.227-.298-.01-.589-.586.288-1.059.844-1.546 1.561-2.382"/><path fill="#FCCB66" d="M215.118 228.443c.632-.815 1.25-1.666 2.419-1.468.524.716.335.31.407 1.329-.539.544-.249.307-1.262.439 1.096 1.179 1.145.357 1.513 1.62-.81.942-.739 1.364-.8 2.548l-.364.375c-1.396-.01-1.923-1.237-3.115-2.182l-.391-.39c-.683-.7-1.694-1.548-1.939-2.439.692-.744 2.583-.056 3.533.168m-6.169-7.086c-.591-.65-.722-.852-1.196-1.56.008-.918-.136-.529.392-1.227l.59-.043c.86.457.594.331 1.109 1.411.779-.251 1.059-.403 1.883-.321l.417.363c-.001.203-.229 2.198-.314 2.032.492.954 2.54 1.691-.207 2.543-1.046-.743-.977-1.326-1.634-1.237-.504.888-.567 1.384-1.313 1.753-.723-.481-.765-.441-1.113-1.269.065-1.528.167-1.527 1.385-2.446"/><path fill="#FCCB66" d="M208.948 221.356c-.591-.65-.722-.852-1.196-1.56.008-.918-.136-.529.392-1.227l.59-.043c.86.457.594.331 1.109 1.411-.273.524-.471 1.086-.895 1.418m-8.761 16.136c.304-.888.328-.849.981-1.462.826-.156.454-.229 1.157.202l.734.76c-.028 1.381-1.066.926-1.001 2.116.834.807 1.091.771 1.276 1.689-.446.714-.145.531-.789.791-.762-.323-.943-.566-1.533-1.128-.996.436-1.027 1.158-2.073 1.351-.869-.785-.6-1.519-.363-2.576-.994-.726-.912-.56-1.144-1.462.36-.77.084-.458.967-.859.99.005.974.07 1.787.577"/><path fill="#FCCB66" d="M198.578 239.235c-.994-.726-.912-.56-1.144-1.462.36-.77.084-.458.967-.859.99.005.974.07 1.787.577l.679.425-.425.896c-.915.211-.977-.061-1.864.423"/><path fill="#F4D35E" d="M200.188 237.491c.304-.888.328-.849.981-1.462.826-.156.454-.229 1.157.202.094 1.126.251.664-.331 1.477-.43.066-.707.099-1.128.208z"/><path fill="#FCCB66" d="M192.931 227.014c1.102.224 1.908 1.761 2.443 1.52.911-.411.683-.858 1.902-.814.832.558.548.199.932 1.071-.315.733-.741.758-1.609 1.263l-.063.455c.817 1.451.756 1.202.549 2.578-1.289-.279-1.449-1.332-2.365-1.363-.552.714-.548.891-1.301 1.289-.693-.362-.655-.321-1.008-1.018.013-.705.277-.954.676-1.55l.16-.234c-.178-.891-.195-.673-.919-1.457-.091-.78.19-1.06.603-1.742m71.027 24.076c.771.012.882-.038 1.607.259.726.857 1.362 1.787 1.34 2.95-.475.816-.146.509-1.071.896-.795-.294-.568-.257-1.132-1.168l-.39-.026c-.55 1.045.323.913-.235 1.761-.908.073-1.483-.265-2.337-.61-1.771-.807-.982.021-2.983-.082.388-.825 1.137-1.502 1.782-2.174l1.88.739zm-7.912 14.268c.664.854 1.202 1.322.954 2.41-.727.286-.613.132-1.582-.233-.093.913-.069 1.134-.487 1.976l-.452.095-.404-.323c-1.001-3.124-1.258-.581-2.859-.995.716-.938 1.227-1.44 1.183-2.61-.357-.652-.465-.845-.733-1.564l.187-.186c1.465.133 1.629.974 3.075.954.723.188.623.048 1.119.476m25.566-51.456c.908.994 2.466 1.971 2.858 2.864-.441.943-.886.016-1.541 1.042.48 1.098.556 1.15.043 2.149-1.195-.915-2.175-1.563-3.361-2.42-1.635-1.18 1.441-3.178 2.002-3.636m-25.942 32.619c.659.198.454.082.95.527.009 1.569.553 3.589.132 4.942-.725-.044-1.535-.885-2.064-1.412l-.978.38c-.466.175-.362.11-.902.097l-.145-.356c.428-.573.532-.576.573-1.264q-.544-.555-1.074-1.125l.055-.489c1.076-1.109.686.264 2.596-.058zm22.996-16.288.662.285c.281.58.259.625.714 1.065.637-.131.647-.184 1.265-.037l.215.596c-.091.769-.028.966-.521 1.55l-.472-.01-.779-1.228-.334.097c.163 1.494 1.531 1.334 1.304 3.31-1.011-.145-1.158-.341-2.038-.959l-.275-.196c-.38.254-.72.536-1.06.841-1.402-.81-.336-2.545.195-3.724.068-.048.9-1.313 1.124-1.589m-36.425 28.015c.313.107.489.115.654.326 1.37 1.747 2.851.688 3.948 1.543l-.171.494c-1.158 1.139-1.843.845-2.574 2.042l.224.664c-.615.212-.291.162-1.016-.048a14 14 0 0 0-.915-1.171l-1.02.124c-.386-.529-.218-.289-.242-1.143.625-.764.823-.706.683-1.621l-.567-.188.277-.476.016.365c.308-.794.049-.526.702-.911m6.822 4.865.234.415c-.408 1.292-1.425 2.84-2.135 4.045.575.341.84.595 1.352 1.016l-.004.41c-.595.07-.905.11-1.486.248a14 14 0 0 1-.157 1.257l-.508-.061a124 124 0 0 1-2.78-2.028c1.869-1.446 3.824-3.57 5.483-5.301m23.679-29.741c-.588.289-.542.297-1.191.272l-.365-.735c-.67-.431-.871-.552-1.483-1.093l.072-.429c.222-.183.741-.629.967-.671.712-.13.078-1.206.911-2.203.657.291.841.802 1.219 1.441.53-.628.71-.996 1.504-1.15.572.357.369.112.616.729-.664 1.389-1.516.693-1.896 2.178.378.744.472.807 1.003 1.423-.496.39-.552.243-1.358.239"/><path fill="#F4D35E" d="M272.874 229.953c.53-.628.71-.996 1.504-1.15.572.357.369.112.616.729-.664 1.389-1.516.693-1.896 2.178.378.744.472.807 1.003 1.423-.496.39-.552.243-1.358.239.032-1.249.368-2.232.131-3.419m-28.944 21.919c1.156.225 1.836-.127 2.605 1.005 1.164 1.715.006 2.922-1.34 3.77-.956-.189-2.388-.724-2.595-1.766.284-.716.506-.779 1.123-1.181a36 36 0 0 1 .207-1.828"/><path fill="#FCCB66" d="m287.124 226.838.363.145c.688 1.056.288 3.593-1.143 4.225-1.082-.118-1.128-.157-2.112-.666l-2.162-3.423c2.518 1.239 2.885 1.891 5.054-.28m-13.72-12.617c.062.061.488.763.546.856 1.08.252 1.048.203 1.846.945-.447.353-.537.448-.92.873.369 1.636.844.768.757 2.706-2.832-.941-5.459-2.784-2.229-5.379m-13.791 25.675c1.189.01 1.437-.047 1.915.974-.197 1.495-1.067 2.272-2.106 3.344-1.205-.67-2.125-1.132-2.079-2.566.526-.945 1.295-1.213 2.271-1.752m-1.694 19.423c.288.013.569.039.819.2 1.795 1.152 2.6-.114 4.023.199.615.914.299 2.205.133 3.287-.741.058-1.527.073-2.274.099l-.23-.23c.415-.432.421-.391.587-.959-1.358-1.524-2.153-.194-3.057-2.595m9.122-35.625c.495-.745.912-1.618 1.713-1.879.763.14 1.07.625 1.621 1.208-.882.569-.813.33-1.13 1.13l.334.745c-.076.767.058 1.135-.531 1.605-.737-.395-1.528-2.001-2.007-2.808"/><path fill="#F4D35E" d="M270.375 223.021c.638-.09.821-.37 1.273-.793.722.04.472-.058 1.058.295-.128 1.865-1.047-.353-1.013 3.21l-.673.38c-1.345-.508-.708-.502-1.441-1.217l-.334-.745c.317-.799.247-.562 1.13-1.13m13.327-.826c1.187-.063 1.303-.242 2.097.55.177.818.233.445-.129 1.161-.845.515-.471.397-1.635.221l-.223-.119c-.589.196-.544.191-1.157.093a41 41 0 0 0 1.047-1.907"/><path fill="#FCCB66" d="M210.739 237.565c.576-.683.743-1.038 1.606-1.22.955.263.6 0 1.148.748-.091.865.078.5-.53 1.128-.631.149-.849.213-1.49.296-.101-.206-.564-.744-.734-.953"/><path fill="#F4D35E" d="m213.524 230.714.391.39c-.582.945-.828 1.707-2.004 1.727l-.108-.498c.369-.869.92-1.095 1.721-1.619m41.404 34.168c.704-.653 1.234-1.303 2.154-1.481l.179.313c-.317.792-.632 1.032-1.214 1.644-.496-.428-.395-.288-1.119-.476"/></svg>